# File created by Blade
# Date/Time:  Wed Sep 24 20:21:23 2014
# Frame Rate: 120.000 fps
#------------------------------------------------------
:FULLY-SPECIFIED
:DEGREES
673
root -7.310515 33.380814 -3.604002 9.090801 21.400448 38.086748
Spine 4.313628 -24.165165 -42.023044
Head 4.337756 -6.459422 17.190358
LeftShoulder 6.960727 -24.746184 29.003772
LeftArm 134.065757 -70.750621 -151.664473
LeftForeArm -13.891538 -0.000000 46.020425
LeftHand -14.856438 0.000000 -33.006813
LeftHandThumb1 -26.253704 0.000000 33.147579
RightShoulder -15.401886 21.176886 -29.830207
RightArm -10.037963 4.262861 15.610727
RightForeArm -22.813986 0.000000 9.644444
RightHand -8.122027 -0.000000 10.662435
RightHandThumb1 -24.326973 -0.000000 -32.862282
LeftUpLeg -151.187381 34.758192 -32.961692
LeftLeg 3.911255 -0.000000 -0.000000
LeftFoot 40.791540 24.584087 -10.082400
LeftToeBase 11.177119 -0.000000 -0.000000
RightUpLeg -4.311108 -3.262048 -27.829348
RightLeg 33.392404 -0.000000 -0.000000
RightFoot -20.590343 -34.060404 -5.046774
RightToeBase 0.473475 -0.000000 -0.000000
674
root -7.317237 33.375953 -3.611945 9.109426 21.434819 38.092478
Spine 4.315713 -24.113790 -42.019837
Head 4.348818 -6.440355 17.141687
LeftShoulder 6.951787 -24.759437 29.011606
LeftArm 134.094746 -70.704040 -151.672195
LeftForeArm -13.779584 -0.000000 46.023993
LeftHand -14.993052 0.000000 -32.690721
LeftHandThumb1 -26.253704 0.000000 33.147579
RightShoulder -15.360857 21.228220 -29.806126
RightArm -10.089140 4.367262 15.535372
RightForeArm -22.930275 -0.000000 9.708267
RightHand -8.056793 -0.000000 10.580404
RightHandThumb1 -24.326973 -0.000000 -32.862282
LeftUpLeg -151.226169 34.782155 -32.983833
LeftLeg 3.918689 -0.000000 -0.000000
LeftFoot 40.918022 24.459848 -9.874986
LeftToeBase 11.021885 -0.000000 -0.000000
RightUpLeg -4.364115 -3.210507 -27.803187
RightLeg 33.471820 -0.000000 -0.000000
RightFoot -20.592040 -34.136647 -5.005839
RightToeBase 0.502351 -0.000000 -0.000000
675
root -7.325628 33.371055 -3.619934 9.128943 21.472078 38.097002
Spine 4.317726 -24.065953 -42.015764
Head 4.375068 -6.420873 17.078778
LeftShoulder 6.963370 -24.807937 29.002889
LeftArm 134.145394 -70.706634 -151.690749
LeftForeArm -13.824649 -0.000000 46.003413
LeftHand -14.944182 -0.000000 -32.610711
LeftHandThumb1 -26.253704 0.000000 33.147579
RightShoulder -15.365686 21.189734 -29.818748
RightArm -10.040658 4.429672 15.557280
RightForeArm -22.949894 0.000000 9.677157
RightHand -8.063345 -0.000000 10.478257
RightHandThumb1 -24.326973 -0.000000 -32.862282
LeftUpLeg -151.240451 34.846119 -32.985091
LeftLeg 3.904274 -0.000000 -0.000000
LeftFoot 40.938028 24.463522 -9.856053
LeftToeBase 10.730162 -0.000000 -0.000000
RightUpLeg -4.411099 -3.220374 -27.786273
RightLeg 33.542302 -0.000000 -0.000000
RightFoot -20.606746 -34.156430 -4.969861
RightToeBase 0.474415 -0.000000 -0.000000
676
root -7.332405 33.366154 -3.628061 9.148127 21.510136 38.108645
Spine 4.330226 -24.023536 -42.022800
Head 4.395205 -6.384823 17.033705
LeftShoulder 6.941170 -24.803293 29.014656
LeftArm 134.206236 -70.683689 -151.716869
LeftForeArm -13.866582 0.000000 46.003406
LeftHand -15.017156 -0.000000 -32.747139
LeftHandThumb1 -26.253704 0.000000 33.147579
RightShoulder -15.324259 21.215096 -29.795793
RightArm -10.112476 4.468235 15.534980
RightForeArm -22.937062 -0.000000 9.820254
RightHand -8.087576 0.000000 10.365400
RightHandThumb1 -24.326973 -0.000000 -32.862282
LeftUpLeg -151.273084 34.871300 -33.018054
LeftLeg 3.897299 -0.000000 -0.000000
LeftFoot 40.802553 24.591156 -9.963577
LeftToeBase 11.270650 -0.000000 -0.000000
RightUpLeg -4.449953 -3.273703 -27.785379
RightLeg 33.603426 -0.000000 -0.000000
RightFoot -20.646447 -34.158365 -4.930389
RightToeBase 0.468050 -0.000000 -0.000000
677
root -7.340257 33.361892 -3.634099 9.150639 21.550193 38.116221
Spine 4.336512 -23.990056 -42.020681
Head 4.477712 -6.343284 16.924546
LeftShoulder 6.911063 -24.733656 28.998045
LeftArm 134.173168 -70.670912 -151.605205
LeftForeArm -13.905002 0.000000 45.956860
LeftHand -14.957713 -0.000000 -32.591008
LeftHandThumb1 -26.253704 0.000000 33.147579
RightShoulder -15.286162 21.205738 -29.765029
RightArm -10.050839 4.582020 15.495465
RightForeArm -23.000210 0.000000 9.700501
RightHand -8.139284 0.000000 10.371743
RightHandThumb1 -24.326973 -0.000000 -32.862282
LeftUpLeg -151.310807 34.884580 -33.061339
LeftLeg 3.904686 -0.000000 -0.000000
LeftFoot 40.860055 24.545125 -9.901048
LeftToeBase 10.949434 -0.000000 -0.000000
RightUpLeg -4.458555 -3.323657 -27.779007
RightLeg 33.638562 -0.000000 -0.000000
RightFoot -20.672296 -34.155895 -4.916850
RightToeBase 0.482775 -0.000000 -0.000000
678
root -7.346106 33.356655 -3.640979 9.152746 21.596582 38.135592
Spine 4.381710 -23.955365 -42.069936
Head 4.513085 -6.326466 16.942387
LeftShoulder 6.864062 -24.752145 29.070903
LeftArm 134.182621 -70.636475 -151.645457
LeftForeArm -13.900657 -0.000000 46.004327
LeftHand -15.000624 -0.000000 -32.646960
LeftHandThumb1 -26.253704 0.000000 33.147579
RightShoulder -15.285467 21.286203 -29.828263
RightArm -10.082154 4.690977 15.577945
RightForeArm -23.149893 -0.000000 9.738443
RightHand -7.878869 0.000000 10.521472
RightHandThumb1 -24.326973 -0.000000 -32.862282
LeftUpLeg -151.294544 34.966958 -33.050759
LeftLeg 3.888930 -0.000000 -0.000000
LeftFoot 40.898504 24.575208 -9.830858
LeftToeBase 11.097256 -0.000000 -0.000000
RightUpLeg -4.455549 -3.385021 -27.792661
RightLeg 33.678226 -0.000000 -0.000000
RightFoot -20.736234 -34.119462 -4.896867
RightToeBase 0.514393 -0.000000 -0.000000
679
root -7.352970 33.352526 -3.644765 9.145139 21.654818 38.150943
Spine 4.414589 -23.893617 -42.088458
Head 4.573889 -6.356226 16.843112
LeftShoulder 6.857470 -24.766798 29.070257
LeftArm 134.162690 -70.633992 -151.601481
LeftForeArm -13.932624 -0.000000 45.991774
LeftHand -14.924544 -0.000000 -32.891425
LeftHandThumb1 -26.253704 0.000000 33.147579
RightShoulder -15.294369 21.286091 -29.819437
RightArm -10.044229 4.600036 15.570140
RightForeArm -23.117702 0.000000 9.659077
RightHand -8.020398 -0.000000 10.445632
RightHandThumb1 -24.326973 -0.000000 -32.862282
LeftUpLeg -151.323418 34.951303 -33.097051
LeftLeg 3.911490 -0.000000 -0.000000
LeftFoot 40.874080 24.569972 -9.814024
LeftToeBase 10.974870 -0.000000 -0.000000
RightUpLeg -4.425884 -3.478405 -27.798577
RightLeg 33.694400 -0.000000 -0.000000
RightFoot -20.778985 -34.094217 -4.889272
RightToeBase 0.538003 -0.000000 -0.000000
680
root -7.361109 33.348849 -3.649833 9.150014 21.701456 38.154093
Spine 4.413692 -23.849703 -42.089050
Head 4.660856 -6.397669 16.738889
LeftShoulder 6.853954 -24.758148 29.067472
LeftArm 134.103887 -70.665579 -151.493903
LeftForeArm -13.991557 -0.000000 45.928837
LeftHand -14.942614 -0.000000 -32.577836
LeftHandThumb1 -26.253704 0.000000 33.147579
RightShoulder -15.284789 21.291224 -29.828810
RightArm -10.073468 4.648939 15.596535
RightForeArm -23.216171 -0.000000 9.729464
RightHand -8.070012 -0.000000 10.539666
RightHandThumb1 -24.326973 -0.000000 -32.862282
LeftUpLeg -151.350674 34.992097 -33.117217
LeftLeg 3.922305 -0.000000 -0.000000
LeftFoot 40.881352 24.576035 -9.806826
LeftToeBase 10.995532 -0.000000 -0.000000
RightUpLeg -4.420626 -3.526443 -27.786820
RightLeg 33.711597 -0.000000 -0.000000
RightFoot -20.811408 -34.080744 -4.880497
RightToeBase 0.560297 -0.000000 -0.000000
681
root -7.368650 33.344183 -3.655023 9.165118 21.756388 38.155361
Spine 4.422569 -23.829973 -42.105591
Head 4.712251 -6.427765 16.703418
LeftShoulder 6.826259 -24.808644 29.128116
LeftArm 134.042939 -70.682931 -151.482816
LeftForeArm -13.950190 -0.000000 45.984328
LeftHand -15.023826 -0.000000 -32.453561
LeftHandThumb1 -26.253704 0.000000 33.147579
RightShoulder -15.261134 21.311579 -29.819601
RightArm -10.089284 4.479136 15.652647
RightForeArm -23.018292 -0.000000 9.766975
RightHand -8.000476 0.000000 10.560142
RightHandThumb1 -24.326973 -0.000000 -32.862282
LeftUpLeg -151.404195 34.994195 -33.147672
LeftLeg 3.953023 -0.000000 -0.000000
LeftFoot 40.926293 24.608183 -9.744307
LeftToeBase 10.566672 -0.000000 -0.000000
RightUpLeg -4.430716 -3.567063 -27.770034
RightLeg 33.747260 -0.000000 -0.000000
RightFoot -20.854485 -34.061289 -4.830598
RightToeBase 0.532276 -0.000000 -0.000000
682
root -7.377789 33.340966 -3.657441 9.162456 21.818183 38.145902
Spine 4.441279 -23.786475 -42.121193
Head 4.777911 -6.479129 16.663307
LeftShoulder 6.814245 -24.811376 29.152839
LeftArm 134.084248 -70.611484 -151.524567
LeftForeArm -13.871208 -0.000000 45.993816
LeftHand -15.009953 0.000000 -32.493492
LeftHandThumb1 -26.253704 0.000000 33.147579
RightShoulder -15.278317 21.310430 -29.846849
RightArm -10.091359 4.456614 15.736357
RightForeArm -22.914644 -0.000000 9.777876
RightHand -7.901567 -0.000000 10.869708
RightHandThumb1 -24.326973 -0.000000 -32.862282
LeftUpLeg -151.429499 35.006166 -33.162648
LeftLeg 3.960299 -0.000000 -0.000000
LeftFoot 40.979648 24.567115 -9.677704
LeftToeBase 10.622570 -0.000000 -0.000000
RightUpLeg -4.414000 -3.660015 -27.750183
RightLeg 33.762576 -0.000000 -0.000000
RightFoot -20.873289 -34.012083 -4.846514
RightToeBase 0.515326 -0.000000 -0.000000
683
root -7.387020 33.337136 -3.662600 9.186563 21.875405 38.137657
Spine 4.417885 -23.755883 -42.105787
Head 4.850376 -6.522503 16.568026
LeftShoulder 6.801330 -24.798871 29.162941
LeftArm 134.109296 -70.554052 -151.553618
LeftForeArm -13.850368 0.000000 46.007339
LeftHand -15.034220 -0.000000 -32.511596
LeftHandThumb1 -26.253704 0.000000 33.147579
RightShoulder -15.280865 21.311445 -29.844552
RightArm -10.099498 4.537782 15.747073
RightForeArm -23.042666 -0.000000 9.777050
RightHand -7.927539 -0.000000 10.795727
RightHandThumb1 -24.326973 -0.000000 -32.862282
LeftUpLeg -151.463582 35.027108 -33.167365
LeftLeg 3.970711 -0.000000 -0.000000
LeftFoot 40.896136 24.712959 -9.739079
LeftToeBase 10.585614 -0.000000 -0.000000
RightUpLeg -4.441535 -3.607904 -27.700899
RightLeg 33.806808 -0.000000 -0.000000
RightFoot -20.890872 -34.081292 -4.765391
RightToeBase 0.494195 -0.000000 -0.000000
